<svg xmlns="http://www.w3.org/2000/svg" xmlns:xlink="http://www.w3.org/1999/xlink" width="181.735" height="50.13" viewBox="0 0 181.735 50.13"><defs><clipPath id="a"><path d="M3.659,0H39.513a3.659,3.659,0,0,1,3.659,3.659V39.513a3.659,3.659,0,0,1-3.659,3.659H3.659A3.659,3.659,0,0,1,0,39.513V3.659A3.659,3.659,0,0,1,3.659,0Z" transform="translate(0)" fill="rgba(255,255,255,0)"/></clipPath><clipPath id="b"><rect width="20.305" height="19.939" fill="#c8102e"/></clipPath><clipPath id="c"><rect width="20.305" height="5.854" fill="#012169"/></clipPath><clipPath id="d"><rect width="5.488" height="19.939" fill="#012169"/></clipPath></defs><g transform="translate(-164.265 -91.579)"><g transform="translate(164.265 98.538)" clip-path="url(#a)"><g transform="translate(0)"><rect width="43.171" height="43.171" rx="20" transform="translate(0)" fill="rgba(255,255,255,0)"/><rect width="10.061" height="43.171" transform="translate(9.147)" fill="#c8102e"/><rect width="43.171" height="10.061" transform="translate(0 9.512)" fill="#c8102e"/><path d="M20.305,19.94H0V3.379L20.305,13.724v6.215Zm0-16.07h0L12.71,0h7.595V3.869Z" transform="translate(22.866 23.232)" fill="#012169"/><path d="M5.488,19.939H0V6.175l5.488-2.8v16.56Z" transform="translate(0 23.232)" fill="#012169"/><path d="M9.487,5.854H3.04L14.528,0h5.777V.341L9.487,5.854Zm10.818,0H12.71l7.595-3.87v3.87ZM0,2.475H0V0H4.858L0,2.475Z" transform="translate(22.866 0)" fill="#012169"/><g transform="translate(22.866 23.232)" clip-path="url(#b)"><rect width="61.83" height="2.927" transform="matrix(0.891, 0.454, -0.454, 0.891, 1.954, -3.838)" fill="#c8102e"/></g><g transform="translate(22.866)" clip-path="url(#c)"><rect width="61.83" height="2.927" transform="matrix(0.891, -0.454, 0.454, 0.891, 0.626, 7.084)" fill="#c8102e"/></g></g></g><path d="M7.556-61.384v2.1h3.393v1.956H7.556v2.282h3.838v2.03H5.022v-10.4h6.371v2.03Zm10.52.015a3,3,0,0,1,2.319.941,3.67,3.67,0,0,1,.867,2.586v4.83H18.743V-57.5a1.815,1.815,0,0,0-.43-1.289,1.507,1.507,0,0,0-1.156-.459A1.507,1.507,0,0,0,16-58.791a1.815,1.815,0,0,0-.43,1.289v4.49H13.038V-61.28h2.534v1.1a2.673,2.673,0,0,1,1.037-.867A3.3,3.3,0,0,1,18.076-61.369Zm8.09-.03a3.182,3.182,0,0,1,1.534.356,2.62,2.62,0,0,1,1.015.933V-61.28h2.534v8.253A4.65,4.65,0,0,1,30.8-50.96a3.444,3.444,0,0,1-1.378,1.474,4.458,4.458,0,0,1-2.3.548,4.792,4.792,0,0,1-2.978-.867,3.272,3.272,0,0,1-1.3-2.349h2.5a1.2,1.2,0,0,0,.563.748,2.052,2.052,0,0,0,1.1.274,1.723,1.723,0,0,0,1.252-.452,1.938,1.938,0,0,0,.467-1.445V-54.2a2.81,2.81,0,0,1-1.022.941,3.087,3.087,0,0,1-1.526.363,3.388,3.388,0,0,1-1.852-.526A3.635,3.635,0,0,1,23-54.916a4.988,4.988,0,0,1-.482-2.245A4.941,4.941,0,0,1,23-59.4a3.592,3.592,0,0,1,1.311-1.482A3.424,3.424,0,0,1,26.166-61.4Zm2.549,4.253a2.072,2.072,0,0,0-.526-1.5,1.709,1.709,0,0,0-1.282-.548,1.72,1.72,0,0,0-1.282.541,2.045,2.045,0,0,0-.526,1.489,2.1,2.1,0,0,0,.526,1.5,1.7,1.7,0,0,0,1.282.556,1.709,1.709,0,0,0,1.282-.548A2.072,2.072,0,0,0,28.715-57.146Zm6.9-6.831v10.965H33.086V-63.977Zm3.112,1.837a1.536,1.536,0,0,1-1.089-.393,1.272,1.272,0,0,1-.422-.971,1.289,1.289,0,0,1,.422-.985,1.536,1.536,0,0,1,1.089-.393,1.516,1.516,0,0,1,1.074.393,1.289,1.289,0,0,1,.422.985,1.272,1.272,0,0,1-.422.971A1.515,1.515,0,0,1,38.731-62.14Zm1.259.859v8.268H37.457V-61.28Zm5.2,8.387a4.752,4.752,0,0,1-1.926-.37,3.29,3.29,0,0,1-1.334-1.015,2.67,2.67,0,0,1-.548-1.445h2.5a.963.963,0,0,0,.4.7,1.415,1.415,0,0,0,.874.267,1.248,1.248,0,0,0,.733-.185.567.567,0,0,0,.259-.482.556.556,0,0,0-.37-.526,7.484,7.484,0,0,0-1.2-.378,11.268,11.268,0,0,1-1.482-.437,2.56,2.56,0,0,1-1.022-.726,1.979,1.979,0,0,1-.43-1.341,2.277,2.277,0,0,1,.393-1.3,2.644,2.644,0,0,1,1.156-.926,4.425,4.425,0,0,1,1.815-.341,3.639,3.639,0,0,1,2.452.771,3,3,0,0,1,1.03,2.045H46.155a1.009,1.009,0,0,0-.378-.682,1.311,1.311,0,0,0-.837-.252,1.157,1.157,0,0,0-.682.17.544.544,0,0,0-.237.467.57.57,0,0,0,.378.533,6.051,6.051,0,0,0,1.178.356,12.886,12.886,0,0,1,1.5.467,2.582,2.582,0,0,1,1.015.741,2.1,2.1,0,0,1,.452,1.371,2.175,2.175,0,0,1-.407,1.3,2.7,2.7,0,0,1-1.171.9A4.477,4.477,0,0,1,45.192-52.894Zm9.987-8.476a2.942,2.942,0,0,1,2.282.941,3.69,3.69,0,0,1,.859,2.586v4.83H55.8V-57.5a1.815,1.815,0,0,0-.43-1.289,1.507,1.507,0,0,0-1.156-.459,1.507,1.507,0,0,0-1.156.459,1.815,1.815,0,0,0-.43,1.289v4.49H50.1V-63.977H52.63v3.808a2.708,2.708,0,0,1,1.052-.874A3.362,3.362,0,0,1,55.179-61.369Zm10.58-2.045v10.4H63.224v-10.4Zm6.875,2.045a3,3,0,0,1,2.319.941,3.67,3.67,0,0,1,.867,2.586v4.83H73.3V-57.5a1.815,1.815,0,0,0-.43-1.289,1.507,1.507,0,0,0-1.156-.459,1.507,1.507,0,0,0-1.156.459,1.815,1.815,0,0,0-.43,1.289v4.49H67.6V-61.28h2.534v1.1a2.673,2.673,0,0,1,1.037-.867A3.3,3.3,0,0,1,72.633-61.369Z" transform="translate(218.516 163.075)" fill="#012169"/><path d="M15.391-99.974h6.761v3.984H10.23v-21.189h5.161Zm18.653,4.2a11.059,11.059,0,0,1-5.478-1.388,10.379,10.379,0,0,1-3.954-3.879,10.84,10.84,0,0,1-1.464-5.6,10.76,10.76,0,0,1,1.464-5.584,10.412,10.412,0,0,1,3.954-3.863,11.059,11.059,0,0,1,5.478-1.388,11.059,11.059,0,0,1,5.478,1.388,10.194,10.194,0,0,1,3.924,3.863,10.935,10.935,0,0,1,1.434,5.584,10.927,10.927,0,0,1-1.449,5.6,10.3,10.3,0,0,1-3.924,3.879A10.975,10.975,0,0,1,34.045-95.778Zm0-4.709a5.2,5.2,0,0,0,4.06-1.69,6.417,6.417,0,0,0,1.524-4.467,6.4,6.4,0,0,0-1.524-4.482,5.222,5.222,0,0,0-4.06-1.675,5.282,5.282,0,0,0-4.09,1.66,6.393,6.393,0,0,0-1.524,4.5,6.4,6.4,0,0,0,1.524,4.482A5.258,5.258,0,0,0,34.045-100.487Zm32.055,4.5H60.938l-8.632-13.069v13.069H47.144v-21.189h5.161l8.632,13.13v-13.13H66.1Zm11.077-21.189a12.325,12.325,0,0,1,5.856,1.328,9.488,9.488,0,0,1,3.879,3.728,10.953,10.953,0,0,1,1.373,5.539,10.975,10.975,0,0,1-1.373,5.524,9.438,9.438,0,0,1-3.894,3.743,12.348,12.348,0,0,1-5.84,1.328H69.239v-21.189Zm-.332,16.722a6.229,6.229,0,0,0,4.558-1.6,6.057,6.057,0,0,0,1.63-4.528,6.161,6.161,0,0,0-1.63-4.558,6.161,6.161,0,0,0-4.558-1.63H74.4v12.315ZM100.6-95.778a11.059,11.059,0,0,1-5.478-1.388,10.379,10.379,0,0,1-3.954-3.879,10.84,10.84,0,0,1-1.464-5.6,10.76,10.76,0,0,1,1.464-5.584,10.412,10.412,0,0,1,3.954-3.863,11.059,11.059,0,0,1,5.478-1.388,11.059,11.059,0,0,1,5.478,1.388A10.194,10.194,0,0,1,110-112.228a10.935,10.935,0,0,1,1.434,5.584,10.927,10.927,0,0,1-1.449,5.6,10.3,10.3,0,0,1-3.924,3.879A10.975,10.975,0,0,1,100.6-95.778Zm0-4.709a5.2,5.2,0,0,0,4.06-1.69,6.417,6.417,0,0,0,1.524-4.467,6.4,6.4,0,0,0-1.524-4.482,5.222,5.222,0,0,0-4.06-1.675,5.282,5.282,0,0,0-4.09,1.66,6.393,6.393,0,0,0-1.524,4.5,6.4,6.4,0,0,0,1.524,4.482A5.258,5.258,0,0,0,100.6-100.487Zm32.055,4.5h-5.161l-8.632-13.069v13.069H113.7v-21.189h5.161l8.632,13.13v-13.13h5.161Z" transform="translate(213.346 235.504)" fill="#012169"/><g transform="translate(185.851 93.079)"><path d="M127.87,61.612h-.349c-6.944.438-12.422,5.47-12.422,12.512a13.209,13.209,0,0,0,3.423,8.91l1.332,1.394c2,2.207,5.773,6.7,7.667,11.456a3.142,3.142,0,0,1,.17.456l.179-.483c1.895-4.736,5.657-9.231,7.658-11.43l1.332-1.394a13.2,13.2,0,0,0,3.432-8.91C140.292,67.082,134.8,62.041,127.87,61.612Z" transform="translate(-115.1 -61.612)" fill="#012169" stroke="#fdf8f4" stroke-width="3"/></g><ellipse cx="5.122" cy="5.031" rx="5.122" ry="5.031" transform="translate(193.351 100.945)" fill="#fff"/></g></svg>