<svg xmlns="http://www.w3.org/2000/svg" width="203" height="50" viewBox="0 0 203 50" fill="none"><path d="M72.6001 0.490234C70.2931 0.490234 68.0332 0.66509 65.8069 0.974485C55.1261 2.46765 45.5684 7.4246 38.2775 14.6685C30.9865 7.4246 21.4289 2.46765 10.7481 0.974485C8.52853 0.66509 6.26188 0.490234 3.95487 0.490234C2.62313 0.490234 1.30484 0.557501 0 0.665116V49.1862H10.7414V11.6822C18.8663 13.1484 26.1035 17.2042 31.5717 22.9549C26.7156 30.5284 23.8906 39.521 23.8906 49.1862H34.4639C34.4639 43.2472 35.836 37.6176 38.2708 32.6067C40.7056 37.6243 42.0777 43.2472 42.0777 49.1862H52.6509C52.6509 39.521 49.826 30.5284 44.9698 22.9549C50.438 17.2042 57.6752 13.1484 65.8002 11.6822V49.1862H76.5415V0.665116C75.2367 0.557501 73.9184 0.490234 72.5867 0.490234H72.6001Z" fill="white"></path><path d="M88.4004 22.1512V5.75317H92.8866V8.10726C93.2565 7.38758 93.835 6.74871 94.6219 6.19046C95.4089 5.6322 96.3774 5.35645 97.5275 5.35645C98.8256 5.35645 99.8345 5.60521 100.547 6.0962C101.26 6.59393 101.778 7.25979 102.108 8.10726C102.518 7.32032 103.157 6.66796 104.025 6.14333C104.892 5.61871 105.915 5.35645 107.085 5.35645C108.861 5.35645 110.213 5.85415 111.141 6.85632C112.069 7.85849 112.533 9.34487 112.533 11.329V22.1579H107.771V12.5061C107.771 11.3492 107.59 10.5287 107.233 10.0444C106.87 9.56016 106.291 9.31797 105.484 9.31797C105.007 9.31797 104.57 9.44582 104.166 9.70813C103.763 9.96372 103.446 10.3336 103.204 10.8044C102.969 11.2819 102.848 11.8469 102.848 12.5061V22.1579H98.0858V12.5061C98.0858 11.3492 97.9042 10.5287 97.541 10.0444C97.1778 9.56016 96.5859 9.31797 95.7653 9.31797C95.2878 9.31797 94.8573 9.44582 94.4672 9.70813C94.0771 9.96372 93.761 10.3336 93.5256 10.8044C93.2902 11.2819 93.1691 11.8469 93.1691 12.5061V22.1579H88.4071L88.4004 22.1512Z" fill="white"></path><path d="M119.959 22.5565C118.782 22.5565 117.78 22.328 116.946 21.8773C116.111 21.4267 115.473 20.8011 115.042 20.0075C114.612 19.2138 114.39 18.3326 114.39 17.3641C114.39 15.7364 114.887 14.4855 115.89 13.6178C116.892 12.7502 118.398 12.3196 120.423 12.3196H125.064V11.6402C125.064 10.6515 124.828 9.97234 124.364 9.59569C123.9 9.22576 123.254 9.03738 122.427 9.03738C121.6 9.03738 121.069 9.15847 120.692 9.39388C120.315 9.62929 120.113 10.0194 120.073 10.5507H115.311C115.372 9.56201 115.688 8.6742 116.253 7.88727C116.818 7.10033 117.632 6.48826 118.694 6.03089C119.757 5.58025 121.048 5.35156 122.575 5.35156C124.021 5.35156 125.286 5.56677 126.382 6.00396C127.472 6.43442 128.326 7.13399 128.931 8.08908C129.537 9.05089 129.846 10.3288 129.846 11.943V17.9762C129.846 18.8439 129.866 19.6038 129.906 20.2495C129.947 20.9019 130.007 21.5342 130.095 22.153H125.548C125.528 21.8033 125.501 21.4938 125.467 21.2248C125.434 20.9557 125.42 20.6262 125.42 20.2361C124.923 20.8952 124.236 21.4467 123.362 21.8906C122.488 22.3345 121.344 22.5565 119.945 22.5565H119.959ZM121.506 19.1869C122.185 19.1869 122.797 19.0658 123.328 18.817C123.867 18.5681 124.29 18.1913 124.6 17.6869C124.909 17.1824 125.064 16.6109 125.064 15.9719V15.2926H121.351C120.652 15.2926 120.127 15.4808 119.791 15.8507C119.454 16.2206 119.279 16.6445 119.279 17.122C119.279 17.7408 119.448 18.2385 119.791 18.6219C120.134 19.0053 120.705 19.1935 121.506 19.1935V19.1869Z" fill="white"></path><path d="M138.155 22.3421C136.837 22.3421 135.754 22.1807 134.907 21.8646C134.059 21.5418 133.441 20.9565 133.037 20.1023C132.633 19.2481 132.432 18.0038 132.432 16.3761V0.50293H137.194V15.6631C137.194 16.672 137.335 17.3783 137.611 17.7819C137.886 18.1855 138.472 18.3872 139.359 18.3872C139.608 18.3872 139.81 18.3872 139.978 18.3737C140.146 18.3603 140.308 18.3469 140.476 18.3267V22.2546C140.267 22.2748 140.045 22.2883 139.81 22.3017C139.575 22.3085 139.312 22.3219 139.037 22.3354C138.761 22.3489 138.465 22.3489 138.155 22.3489V22.3421Z" fill="white"></path><path d="M146.532 22.1568L139.631 5.75879H144.891L149.034 16.6818L152.807 5.75879H157.569L151.321 22.1568H146.525H146.532Z" fill="white"></path><path d="M165.869 22.5544C164.261 22.5544 162.815 22.2519 161.537 21.6398C160.259 21.0277 159.244 20.0996 158.49 18.8418C157.737 17.5841 157.36 16.0035 157.36 14.1067V13.4878C157.36 11.6718 157.724 10.1652 158.443 8.968C159.163 7.77078 160.152 6.86948 161.396 6.25741C162.647 5.65208 164.033 5.34277 165.559 5.34277C168.263 5.34277 170.301 6.03545 171.687 7.42773C173.072 8.82 173.758 10.8378 173.758 13.4744V15.2097H162.25C162.29 16.0168 162.479 16.6827 162.822 17.2208C163.165 17.7589 163.602 18.1422 164.14 18.3844C164.678 18.6198 165.257 18.7409 165.875 18.7409C166.783 18.7409 167.503 18.5997 168.028 18.3239C168.552 18.0482 168.902 17.6714 169.064 17.1938H173.456C173.126 18.9897 172.312 20.3281 171.014 21.216C169.716 22.1038 168.001 22.5479 165.875 22.5479L165.869 22.5544ZM165.714 9.15635C165.136 9.15635 164.591 9.25061 164.073 9.43222C163.555 9.62054 163.138 9.92312 162.822 10.3469C162.499 10.7706 162.324 11.3423 162.284 12.062H169.09C169.09 11.302 168.936 10.7033 168.626 10.2863C168.317 9.86925 167.907 9.56671 167.402 9.40529C166.898 9.23714 166.333 9.15635 165.714 9.15635Z" fill="white"></path><path d="M175.771 22.153V5.75502H180.163V7.98136C180.331 7.61143 180.606 7.22132 180.997 6.80431C181.387 6.39403 181.864 6.04425 182.422 5.76849C182.981 5.49272 183.6 5.35156 184.279 5.35156C184.629 5.35156 184.904 5.37164 185.113 5.41199C185.321 5.45235 185.503 5.49282 185.671 5.53318V9.64938C185.57 9.58885 185.328 9.51498 184.958 9.43427C184.588 9.35356 184.151 9.31309 183.66 9.31309C182.94 9.31309 182.342 9.45442 181.878 9.74364C181.414 10.0329 181.071 10.423 180.855 10.9207C180.64 11.4184 180.532 11.9699 180.532 12.5887V22.1463H175.771V22.153Z" fill="white"></path><path d="M187.218 22.153V5.75502H191.61V7.98136C192.02 7.2415 192.666 6.61597 193.547 6.11152C194.421 5.60707 195.592 5.35156 197.058 5.35156C199.015 5.35156 200.495 5.87609 201.497 6.93207C202.499 7.98132 202.997 9.50139 202.997 11.4788V22.153H198.235V12.5618C198.235 11.4924 198.006 10.6784 197.535 10.1336C197.071 9.58883 196.311 9.31309 195.262 9.31309C194.502 9.31309 193.876 9.46117 193.392 9.76384C192.908 10.0665 192.551 10.4566 192.323 10.9409C192.094 11.4252 191.98 11.9699 191.98 12.5685V22.1598H187.218V22.153Z" fill="white"></path><path d="M88.4004 49.1908V27.5332H91.1244V35.7321C91.4136 35.1537 91.8037 34.6157 92.3015 34.1247C92.7992 33.627 93.3978 33.2301 94.1107 32.9342C94.8237 32.6382 95.6308 32.4834 96.5388 32.4834C98.6037 32.4834 100.13 33.0351 101.133 34.1382C102.135 35.2412 102.633 36.8554 102.633 38.9808V49.1908H99.9085V39.5996C99.9085 38.0728 99.5857 36.916 98.9467 36.1357C98.3078 35.3488 97.2316 34.9587 95.7317 34.9587C94.6623 34.9587 93.7812 35.1874 93.1018 35.638C92.4225 36.0954 91.9181 36.667 91.6019 37.3732C91.2791 38.0727 91.1244 38.8193 91.1244 39.5996V49.1908H88.4004Z" fill="white"></path><path d="M113.334 49.4992C111.955 49.4992 110.657 49.1966 109.453 48.5845C108.249 47.9792 107.274 47.0509 106.547 45.8133C105.814 44.5758 105.451 43.0154 105.451 41.1388V40.5201C105.451 38.7444 105.814 37.2646 106.547 36.0674C107.281 34.8702 108.249 33.9756 109.453 33.377C110.657 32.7784 111.955 32.4824 113.334 32.4824C114.713 32.4824 116.038 32.7784 117.235 33.377C118.432 33.9756 119.394 34.8702 120.127 36.0674C120.86 37.2646 121.224 38.7512 121.224 40.5201V41.1388C121.224 43.0154 120.86 44.5758 120.127 45.8133C119.394 47.0509 118.432 47.9725 117.235 48.5845C116.038 49.1899 114.74 49.4992 113.334 49.4992ZM113.334 47.024C114.181 47.024 114.989 46.8357 115.762 46.4523C116.536 46.0689 117.175 45.4434 117.679 44.5824C118.183 43.7148 118.439 42.5715 118.439 41.1456V40.5268C118.439 39.2085 118.183 38.1391 117.679 37.3253C117.175 36.5114 116.536 35.9127 115.762 35.5293C114.989 35.1459 114.181 34.9577 113.334 34.9577C112.487 34.9577 111.706 35.1459 110.919 35.5293C110.132 35.9127 109.493 36.5114 108.982 37.3253C108.478 38.1391 108.222 39.2085 108.222 40.5268V41.1456C108.222 42.5715 108.478 43.7148 108.982 44.5824C109.487 45.4501 110.132 46.0756 110.919 46.4523C111.706 46.8357 112.507 47.024 113.334 47.024Z" fill="white"></path><path d="M130.108 49.5012C128.131 49.5012 126.644 48.9361 125.655 47.7995C124.667 46.6628 124.169 44.9141 124.169 42.5399V32.7939H126.893V42.3852C126.893 43.912 127.209 45.0688 127.835 45.849C128.46 46.6359 129.489 47.026 130.915 47.026C131.944 47.026 132.792 46.7973 133.451 46.3467C134.11 45.8961 134.594 45.3108 134.904 44.5979C135.213 43.8849 135.368 43.1519 135.368 42.3852V32.7939H138.092V49.1918H135.556V46.0978C135.186 47.0058 134.534 47.7995 133.605 48.4788C132.677 49.1581 131.514 49.5012 130.108 49.5012Z" fill="white"></path><path d="M147.804 49.4992C146.707 49.4992 145.759 49.3715 144.959 49.1092C144.152 48.8536 143.486 48.5038 142.948 48.0733C142.41 47.6429 141.986 47.1317 141.663 46.5398C141.34 45.9479 141.125 45.3359 140.997 44.6969H143.721C143.862 45.356 144.252 45.9278 144.878 46.412C145.51 46.8963 146.479 47.1383 147.804 47.1383C149.331 47.1383 150.393 46.8963 150.992 46.412C151.59 45.9278 151.886 45.356 151.886 44.6969C151.886 44.2462 151.759 43.8494 151.496 43.5064C151.241 43.1634 150.783 42.8741 150.138 42.6252C149.492 42.3764 148.564 42.1747 147.367 42.0065C146.459 41.8854 145.645 41.7038 144.925 41.4684C144.205 41.233 143.587 40.9169 143.069 40.5268C142.551 40.1367 142.154 39.6591 141.878 39.1008C141.602 38.5426 141.461 37.8835 141.461 37.1234C141.461 36.2961 141.697 35.536 142.174 34.8365C142.652 34.137 143.358 33.5654 144.306 33.135C145.255 32.7045 146.418 32.4824 147.804 32.4824C149.102 32.4824 150.178 32.7044 151.039 33.1483C151.893 33.5922 152.559 34.1774 153.037 34.8971C153.514 35.6168 153.83 36.4105 153.998 37.2781H151.274C151.106 36.5584 150.756 35.9665 150.225 35.5158C149.687 35.0652 148.887 34.8365 147.81 34.8365C146.472 34.8365 145.53 35.0585 144.992 35.5024C144.454 35.9463 144.185 36.4845 144.185 37.1302C144.185 37.87 144.481 38.4283 145.066 38.7982C145.651 39.1681 146.734 39.4574 148.301 39.6659C149.31 39.7869 150.212 39.9686 150.992 40.204C151.779 40.4394 152.438 40.7622 152.969 41.1658C153.507 41.5693 153.911 42.0603 154.193 42.632C154.469 43.2104 154.61 43.9032 154.61 44.7036C154.61 45.5713 154.362 46.365 153.871 47.0846C153.373 47.8043 152.626 48.3894 151.631 48.8333C150.629 49.2772 149.357 49.4992 147.81 49.4992H147.804Z" fill="white"></path><path d="M164.664 49.5022C163.285 49.5022 161.987 49.1996 160.783 48.6077C159.579 48.0159 158.604 47.0943 157.878 45.8568C157.144 44.6192 156.781 43.052 156.781 41.1553V40.5366C156.781 38.7206 157.131 37.2206 157.83 36.0368C158.53 34.853 159.458 33.9652 160.615 33.3733C161.772 32.7882 163.016 32.4922 164.361 32.4922C166.776 32.4922 168.639 33.1515 169.964 34.4697C171.282 35.788 171.942 37.6577 171.942 40.0724V41.8077H159.505C159.505 43.0857 159.768 44.108 160.292 44.8681C160.817 45.6348 161.476 46.1863 162.27 46.5226C163.063 46.8657 163.864 47.0338 164.664 47.0338C165.902 47.0338 166.857 46.8254 167.523 46.4151C168.195 46.0048 168.673 45.4331 168.962 44.7134H171.625C171.296 46.2805 170.482 47.4709 169.197 48.2848C167.906 49.0986 166.399 49.5089 164.664 49.5089V49.5022ZM164.509 34.9607C163.662 34.9607 162.862 35.1221 162.095 35.4382C161.328 35.7611 160.709 36.2588 160.225 36.9381C159.741 37.6174 159.499 38.4985 159.499 39.5679H169.366C169.345 38.4312 169.11 37.5299 168.666 36.8573C168.222 36.1847 167.637 35.7005 166.917 35.4046C166.198 35.1086 165.39 34.954 164.503 34.954L164.509 34.9607Z" fill="white"></path></svg>